<?xml version="1.0" standalone="no"?>
<!DOCTYPE svg PUBLIC "-//W3C//DTD SVG 20010904//EN"
 "http://www.w3.org/TR/2001/REC-SVG-20010904/DTD/svg10.dtd">
<svg version="1.0" xmlns="http://www.w3.org/2000/svg"
 width="512.000000pt" height="512.000000pt" viewBox="0 0 512.000000 512.000000"
 preserveAspectRatio="xMidYMid meet">

<g transform="translate(0.000000,512.000000) scale(0.100000,-0.100000)"
fill="#000000" stroke="none">
<path d="M2275 4424 c-743 -115 -1353 -667 -1540 -1392 -29 -115 -55 -276 -55
-349 l0 -53 239 0 240 0 6 48 c40 318 138 559 314 770 57 68 88 79 132 44 37
-31 29 -70 -26 -138 -62 -76 -102 -139 -152 -239 -66 -131 -101 -256 -127
-448 l-5 -37 262 2 262 3 7 51 c41 288 314 561 602 602 l51 7 3 262 2 262 -37
-5 c-21 -3 -80 -12 -131 -20 -85 -15 -95 -15 -117 0 -35 23 -42 61 -18 94 17
23 34 30 114 44 52 10 115 20 142 23 l47 6 0 240 0 239 -62 -1 c-35 -1 -103
-7 -153 -15z m-312 -527 c73 -56 88 -160 32 -233 -94 -124 -295 -57 -295 98 0
72 38 131 100 157 43 19 124 8 163 -22z"/>
<path d="M2630 4202 l0 -241 48 -6 c201 -25 367 -72 510 -144 112 -56 139
-102 89 -149 -33 -31 -56 -28 -155 22 -138 69 -260 104 -455 130 l-37 5 2
-262 3 -262 47 -7 c60 -8 167 -43 197 -64 33 -24 27 -92 -11 -113 -24 -14 -33
-13 -109 12 -226 77 -452 25 -619 -143 -239 -238 -239 -602 0 -840 238 -239
602 -239 840 0 154 153 212 364 160 573 -17 64 -10 99 22 116 20 12 34 13 55
5 33 -11 50 -43 65 -121 6 -32 12 -64 14 -70 3 -10 64 -13 263 -13 l259 0 -5
43 c-11 101 -36 215 -67 305 -37 110 -34 142 13 162 42 17 75 -3 100 -60 43
-99 74 -229 96 -402 l6 -48 240 0 239 0 0 53 c0 28 -7 97 -15 152 -106 704
-602 1294 -1273 1515 -140 46 -301 78 -429 87 l-93 6 0 -241z m1255 -516 c39
-58 55 -42 -644 -638 -488 -416 -661 -558 -680 -558 -34 0 -71 37 -71 71 0 33
-12 22 664 599 696 594 642 550 682 550 25 0 38 -7 49 -24z"/>
<path d="M680 2438 c0 -145 56 -389 131 -578 96 -242 227 -439 418 -631 191
-190 388 -321 632 -418 188 -75 433 -131 577 -131 l52 0 0 239 0 240 -47 6
c-193 24 -330 61 -483 131 -107 49 -130 90 -82 147 23 26 65 21 140 -17 117
-59 248 -95 435 -120 l37 -5 -2 262 -3 262 -51 7 c-288 41 -561 314 -602 602
l-7 51 -261 3 -262 2 5 -47 c12 -125 60 -308 104 -395 35 -69 13 -138 -44
-138 -39 0 -64 27 -95 103 -55 130 -83 246 -107 430 l-6 47 -240 0 -239 0 0
-52z m961 -641 c153 -81 96 -311 -76 -311 -172 0 -229 230 -76 311 56 29 96
29 152 0z"/>
<path d="M3296 2478 c-2 -7 -9 -39 -15 -71 -24 -132 -94 -260 -201 -367 -107
-107 -235 -177 -368 -202 -31 -6 -63 -12 -69 -14 -10 -3 -13 -64 -13 -263 l0
-259 43 5 c319 36 579 162 794 386 135 141 233 304 291 487 26 84 39 143 56
273 l5 37 -260 0 c-199 0 -261 -3 -263 -12z"/>
<path d="M3955 2443 c-46 -371 -167 -627 -409 -869 -242 -242 -498 -363 -868
-409 l-48 -6 0 -241 0 -241 93 6 c594 39 1170 408 1477 948 135 239 240 589
240 807 l0 52 -239 0 -240 0 -6 -47z"/>
</g>
</svg>
